<?xml version="1.0" standalone="no"?>
<!DOCTYPE svg PUBLIC "-//W3C//DTD SVG 20010904//EN"
 "http://www.w3.org/TR/2001/REC-SVG-20010904/DTD/svg10.dtd">
<svg version="1.0" xmlns="http://www.w3.org/2000/svg"
 width="578.000000pt" height="202.000000pt" viewBox="0 0 578.000000 202.000000"
 preserveAspectRatio="xMidYMid meet">

<g transform="translate(0.000000,202.000000) scale(0.100000,-0.100000)"
fill="#000000" stroke="none">
<path d="M133 1780 c-17 -10 -37 -28 -42 -39 -8 -13 -11 -193 -11 -548 1 -574
-2 -545 57 -585 26 -17 61 -18 543 -18 493 0 516 1 547 20 64 39 63 27 63 585
0 558 1 546 -63 585 -31 19 -54 20 -547 20 -492 0 -516 -1 -547 -20z m679 -41
c122 -26 271 -122 321 -207 l17 -30 -92 -50 -92 -50 -28 38 c-109 148 -349
160 -480 23 -66 -68 -83 -121 -83 -253 0 -103 3 -121 26 -171 53 -113 139
-169 270 -177 137 -8 241 43 288 143 36 77 39 75 -119 75 l-140 0 0 85 0 85
245 0 245 0 0 -285 0 -285 -85 0 -85 0 0 70 0 70 -40 -40 c-165 -165 -500
-148 -683 35 -121 120 -176 335 -136 527 41 199 202 357 404 398 60 12 187 11
247 -1z"/>
<path d="M1518 1763 c-32 -20 -61 -85 -53 -117 19 -68 56 -96 126 -96 33 0 47
6 75 34 29 29 34 41 34 81 0 40 -5 52 -34 81 -28 28 -41 34 -77 34 -24 0 -56
-8 -71 -17z"/>
<path d="M1832 1764 c-30 -21 -52 -66 -52 -108 0 -26 9 -44 34 -70 29 -32 39
-36 82 -36 56 0 87 17 109 60 28 53 11 120 -37 154 -12 9 -43 16 -68 16 -25 0
-56 -7 -68 -16z"/>
<path d="M3022 1764 c-28 -19 -52 -65 -52 -99 0 -34 24 -80 52 -99 12 -9 43
-16 68 -16 52 0 83 18 105 60 28 53 11 120 -37 154 -12 9 -43 16 -68 16 -25 0
-56 -7 -68 -16z"/>
<path d="M3335 1758 c-15 -12 -34 -37 -42 -56 -45 -109 111 -207 196 -122 39
40 48 87 26 134 -31 66 -124 88 -180 44z"/>
<path d="M2385 1584 c-6 -74 -11 -90 -34 -116 -23 -26 -37 -32 -84 -36 l-57
-4 0 -79 0 -79 74 0 75 0 3 -217 c3 -201 5 -221 25 -258 46 -86 108 -115 248
-115 l95 0 0 80 0 80 -49 0 c-38 0 -56 6 -78 24 l-28 24 -3 191 -4 191 81 0
81 0 0 80 0 80 -80 0 -80 0 0 120 0 120 -89 0 -89 0 -7 -86z"/>
<path d="M1638 1435 c-131 -26 -235 -109 -279 -223 -33 -82 -32 -233 0 -315
42 -107 148 -192 273 -218 85 -19 234 -7 300 23 67 31 140 96 173 152 56 98
61 278 10 381 -54 110 -158 183 -295 204 -79 13 -97 13 -182 -4z m165 -166
c85 -23 143 -113 141 -219 -2 -125 -92 -220 -209 -220 -55 0 -132 46 -163 98
-23 41 -27 58 -27 127 0 69 4 86 27 126 50 84 132 116 231 88z"/>
<path d="M4176 1423 c-52 -16 -136 -67 -136 -83 0 -6 -4 -10 -10 -10 -5 0 -10
23 -10 50 l0 50 -100 0 -100 0 0 -375 0 -375 105 0 105 0 0 209 c0 128 4 221
11 242 25 74 97 119 193 119 l36 0 0 95 c0 109 1 108 -94 78z"/>
<path d="M2880 1143 c0 -268 2 -291 21 -333 43 -95 103 -132 229 -138 103 -5
155 8 215 53 25 19 47 35 50 35 3 0 5 -18 5 -40 l0 -40 100 0 100 0 0 375 0
375 -104 0 -105 0 -3 -247 c-3 -241 -4 -249 -26 -281 -61 -85 -196 -92 -249
-13 -22 33 -23 40 -23 287 l0 254 -105 0 -105 0 0 -287z"/>
<path d="M4190 930 l0 -240 45 0 c33 0 45 4 45 15 0 12 6 11 33 -5 72 -44 162
-14 205 70 50 100 4 213 -99 240 -38 11 -50 9 -91 -8 l-48 -20 0 94 0 94 -45
0 -45 0 0 -240z m227 -12 c45 -49 37 -120 -17 -152 -34 -20 -63 -15 -97 17
-33 30 -32 99 2 132 32 33 84 34 112 3z"/>
<path d="M5131 1000 c-35 -16 -42 -17 -37 -5 4 12 -4 15 -44 15 l-50 0 0 -160
0 -160 45 0 45 0 0 99 c0 84 3 102 21 125 14 18 30 26 53 26 51 0 56 -12 56
-137 l0 -113 44 0 44 0 4 43 c3 23 3 83 1 132 -5 96 -13 114 -65 141 -36 19
-65 17 -117 -6z"/>
<path d="M4600 880 c0 -128 0 -130 28 -161 38 -42 105 -51 157 -21 28 17 35
18 35 7 0 -11 12 -15 45 -15 l45 0 0 160 0 160 -45 0 -45 0 0 -105 c0 -99 -2
-107 -25 -130 -28 -29 -51 -31 -83 -9 -21 14 -22 23 -22 130 l0 114 -45 0 -45
0 0 -130z"/>
<path d="M5400 878 c1 -89 5 -138 13 -148 41 -52 107 -64 170 -30 31 17 37 17
37 5 0 -11 12 -15 45 -15 l45 0 0 160 0 160 -45 0 -45 0 0 -105 c0 -99 -2
-107 -25 -130 -28 -29 -51 -31 -83 -9 -21 14 -22 23 -22 130 l0 114 -45 0 -45
0 0 -132z"/>
<path d="M1970 376 c0 -46 -3 -98 -6 -115 -6 -28 -4 -31 20 -31 l26 0 0 115
c0 108 -1 115 -20 115 -18 0 -20 -7 -20 -84z"/>
<path d="M3590 345 c0 -108 1 -115 20 -115 19 0 20 7 20 115 0 108 -1 115 -20
115 -19 0 -20 -7 -20 -115z"/>
<path d="M2895 441 c-9 -16 3 -31 26 -31 14 0 19 6 17 17 -4 20 -33 29 -43 14z"/>
<path d="M2960 430 c0 -13 7 -20 20 -20 13 0 20 7 20 20 0 13 -7 20 -20 20
-13 0 -20 -7 -20 -20z"/>
<path d="M3680 430 c0 -13 7 -20 20 -20 13 0 20 7 20 20 0 13 -7 20 -20 20
-13 0 -20 -7 -20 -20z"/>
<path d="M1360 395 c0 -33 4 -45 15 -45 11 0 15 12 15 45 0 33 -4 45 -15 45
-11 0 -15 -12 -15 -45z"/>
<path d="M1420 395 c0 -33 4 -45 15 -45 11 0 15 12 15 45 0 33 -4 45 -15 45
-11 0 -15 -12 -15 -45z"/>
<path d="M1510 335 c0 -97 1 -105 19 -105 16 0 20 8 23 43 l3 42 45 0 45 0 3
-42 c3 -35 7 -43 23 -43 18 0 19 8 19 105 0 98 -1 105 -20 105 -17 0 -20 -7
-20 -39 0 -48 -7 -53 -59 -45 -40 6 -41 8 -41 45 0 32 -3 39 -20 39 -19 0 -20
-7 -20 -105z"/>
<path d="M2659 411 c-64 -64 -21 -181 66 -181 20 0 45 5 56 10 13 7 19 7 19 0
0 -5 9 -10 20 -10 19 0 21 5 18 57 l-3 57 -45 0 c-34 0 -46 -4 -48 -17 -3 -12
4 -17 22 -17 14 0 26 -4 26 -9 0 -16 -30 -33 -55 -33 -61 -1 -88 77 -42 120
27 26 42 27 81 7 21 -11 32 -13 40 -5 19 20 -30 50 -81 50 -36 0 -50 -6 -74
-29z"/>
<path d="M3830 420 c0 -15 7 -20 25 -20 25 0 25 -1 25 -85 0 -78 2 -85 20 -85
18 0 20 7 20 85 0 84 0 85 25 85 18 0 25 5 25 20 0 18 -7 20 -70 20 -63 0 -70
-2 -70 -20z"/>
<path d="M4920 395 c0 -32 4 -45 14 -45 17 0 26 22 26 61 0 22 -5 29 -20 29
-17 0 -20 -7 -20 -45z"/>
<path d="M4980 395 c0 -49 23 -64 34 -22 12 44 7 67 -14 67 -17 0 -20 -7 -20
-45z"/>
<path d="M1740 305 c0 -68 2 -75 20 -75 18 0 20 7 20 75 0 68 -2 75 -20 75
-18 0 -20 -7 -20 -75z"/>
<path d="M1817 373 c-15 -14 -6 -23 23 -23 17 0 30 -3 30 -7 0 -3 -14 -30 -30
-60 l-30 -53 60 0 c47 0 60 3 60 15 0 10 -10 15 -31 15 l-31 0 31 55 c17 30
31 57 31 60 0 8 -106 6 -113 -2z"/>
<path d="M2050 305 c0 -68 2 -75 20 -75 18 0 20 7 20 75 0 68 -2 75 -20 75
-18 0 -20 -7 -20 -75z"/>
<path d="M2200 376 c0 -21 62 -142 74 -144 15 -3 36 31 69 111 15 36 15 37 -4
37 -15 0 -26 -14 -42 -50 l-23 -51 -18 51 c-13 36 -23 50 -37 50 -10 0 -19 -2
-19 -4z"/>
<path d="M2392 357 c-28 -29 -28 -67 -1 -101 24 -30 72 -35 107 -10 41 28 15
49 -28 22 -15 -9 -25 -10 -37 -2 -36 22 -25 33 36 36 l61 3 -17 35 c-16 30
-24 35 -58 38 -32 2 -45 -2 -63 -21z m86 -24 c2 -9 -8 -13 -32 -13 -34 0 -44
8 -29 24 11 11 56 2 61 -11z"/>
<path d="M2877 373 c-13 -12 -7 -99 8 -120 13 -19 25 -22 75 -21 l60 1 0 73
c0 67 -2 74 -20 74 -17 0 -20 -7 -20 -49 0 -95 -62 -97 -68 -2 -3 48 -16 64
-35 44z"/>
<path d="M3050 370 c0 -27 60 -140 74 -140 10 0 28 26 46 66 35 78 36 84 11
84 -13 0 -24 -15 -38 -52 l-20 -52 -18 52 c-13 37 -24 52 -37 52 -10 0 -18 -5
-18 -10z"/>
<path d="M3240 360 c-46 -46 -11 -130 54 -130 33 1 66 20 66 39 0 14 -12 14
-44 0 -20 -9 -29 -9 -41 1 -27 22 -16 30 40 30 48 0 55 2 55 20 0 32 -36 60
-75 60 -22 0 -43 -8 -55 -20z m88 -27 c2 -9 -8 -13 -32 -13 -34 0 -44 8 -29
24 11 11 56 2 61 -11z"/>
<path d="M3410 302 c0 -65 2 -73 18 -70 13 2 18 16 22 58 5 51 7 55 30 55 23
0 25 -4 28 -57 3 -50 6 -58 22 -58 17 0 20 7 20 56 0 84 -9 94 -80 92 l-60 -2
0 -74z"/>
<path d="M3680 305 c0 -68 2 -75 20 -75 18 0 20 7 20 75 0 68 -2 75 -20 75
-18 0 -20 -7 -20 -75z"/>
<path d="M4010 365 c-11 -13 -11 -18 0 -28 10 -9 13 -9 17 1 7 18 53 15 53 -3
0 -9 -9 -15 -23 -15 -30 0 -67 -27 -67 -49 0 -29 21 -39 81 -39 l55 1 -4 61
c-2 33 -9 67 -14 74 -15 17 -83 15 -98 -3z m68 -87 c-18 -27 -41 -30 -46 -6
-3 15 12 24 47 27 11 1 11 -3 -1 -21z"/>
<path d="M4172 368 c-25 -25 -14 -54 28 -73 22 -10 40 -22 40 -26 0 -17 -22
-20 -44 -6 -23 16 -50 9 -38 -9 4 -6 15 -14 26 -17 10 -4 16 -13 13 -21 -3 -8
2 -16 15 -19 11 -3 17 -10 14 -16 -4 -6 -14 -7 -23 -4 -11 4 -14 2 -11 -8 7
-20 39 -17 52 4 9 14 7 21 -6 31 -23 17 -23 26 1 26 54 0 51 72 -4 90 -55 18
-56 34 -1 26 50 -8 54 -5 30 18 -18 19 -75 21 -92 4z"/>
<path d="M4310 306 c0 -69 2 -76 19 -76 16 0 21 9 26 43 11 69 4 101 -22 105
-22 3 -23 0 -23 -72z"/>
<path d="M4380 376 c0 -2 14 -35 31 -73 29 -65 30 -69 15 -101 -20 -41 -20
-42 3 -42 15 0 29 24 65 108 25 59 41 109 35 110 -20 8 -36 -7 -49 -47 -7 -23
-16 -41 -20 -41 -4 0 -13 20 -20 45 -10 37 -17 45 -36 45 -13 0 -24 -2 -24 -4z"/>
<path d="M4565 308 c2 -66 5 -73 24 -76 20 -3 21 1 21 72 0 73 -1 76 -23 76
-23 0 -24 -3 -22 -72z"/>
<path d="M4662 357 c-31 -33 -29 -80 4 -106 32 -25 71 -27 102 -5 41 28 15 49
-28 22 -28 -18 -55 1 -55 37 0 36 27 55 55 37 23 -14 50 -16 50 -4 0 19 -39
42 -72 42 -23 0 -42 -8 -56 -23z"/>
<path d="M4830 305 c0 -68 2 -75 20 -75 18 0 20 7 20 75 0 68 -2 75 -20 75
-18 0 -20 -7 -20 -75z"/>
</g>
</svg>
